<svg xmlns="http://www.w3.org/2000/svg" viewBox="0 0 256 256" role="img" aria-labelledby="title">
  <title>StreetReady</title>
  <defs>
    <linearGradient id="bg" x1="0%" y1="0%" x2="100%" y2="100%">
      <stop offset="0%" stop-color="#11282b" />
      <stop offset="100%" stop-color="#29646c" />
    </linearGradient>
    <linearGradient id="glow" x1="0%" y1="0%" x2="100%" y2="100%">
      <stop offset="0%" stop-color="#d5a960" />
      <stop offset="100%" stop-color="#8cc2bc" />
    </linearGradient>
  </defs>
  <rect width="256" height="256" rx="56" fill="url(#bg)" />
  <circle cx="72" cy="64" r="44" fill="#ffffff" fill-opacity="0.08" />
  <path
    d="M63 160c0-38 24-64 60-64 25 0 44 9 58 25l-20 19c-9-10-21-15-36-15-23 0-38 15-38 37s15 37 39 37c14 0 25-4 35-12v-17h-33v-26h63v56c-16 15-39 24-66 24-38 0-62-25-62-64Z"
    fill="#f7f2ea"
  />
  <path
    d="M74 89h43"
    stroke="url(#glow)"
    stroke-width="10"
    stroke-linecap="round"
  />
</svg>
