<svg xmlns="http://www.w3.org/2000/svg" viewBox="0 0 478 84" role="img" aria-label="Bank of America">
  <text
    x="0"
    y="47"
    fill="#12327A"
    font-family="'Helvetica Neue', Arial, sans-serif"
    font-size="31"
    font-weight="700"
    letter-spacing="-0.02em"
  >
    Bank of America
  </text>

  <g transform="translate(332 10)">
    <polygon points="0,22 34,0 48,0 14,22" fill="#EB1736"/>
    <polygon points="22,22 56,0 70,0 36,22" fill="#EB1736"/>
    <polygon points="44,22 78,0 92,0 58,22" fill="#EB1736"/>

    <polygon points="0,36 34,14 48,14 14,36" fill="#12327A"/>
    <polygon points="22,36 56,14 70,14 36,36" fill="#12327A"/>
    <polygon points="44,36 78,14 92,14 58,36" fill="#12327A"/>

    <polygon points="0,50 34,28 48,28 14,50" fill="#EB1736"/>
    <polygon points="22,50 56,28 70,28 36,50" fill="#EB1736"/>
    <polygon points="44,50 78,28 92,28 58,50" fill="#EB1736"/>
  </g>
</svg>
