<svg xmlns="http://www.w3.org/2000/svg" viewBox="0 0 326 48" role="img" aria-label="Bank of America">
  <text
    x="0"
    y="33"
    fill="#334155"
    font-family="'Helvetica Neue', Arial, sans-serif"
    font-size="27"
    font-weight="700"
    letter-spacing="-0.022em"
  >
    Bank of America
  </text>

  <g transform="translate(248 7)">
    <polygon points="0,12 24,0 34,0 10,12" fill="#E11D48"/>
    <polygon points="16,12 40,0 50,0 26,12" fill="#E11D48"/>
    <polygon points="32,12 56,0 66,0 42,12" fill="#E11D48"/>

    <polygon points="0,24 24,12 34,12 10,24" fill="#1D4ED8"/>
    <polygon points="16,24 40,12 50,12 26,24" fill="#1D4ED8"/>
    <polygon points="32,24 56,12 66,12 42,24" fill="#1D4ED8"/>

    <polygon points="0,36 24,24 34,24 10,36" fill="#E11D48"/>
    <polygon points="16,36 40,24 50,24 26,36" fill="#E11D48"/>
    <polygon points="32,36 56,24 66,24 42,36" fill="#E11D48"/>
  </g>
</svg>
