<svg xmlns="http://www.w3.org/2000/svg" viewBox="0 0 470 72" role="img" aria-label="Bank of America">
  <text
    x="0"
    y="43"
    fill="#0B2F73"
    font-family="'Helvetica Neue',Arial,sans-serif"
    font-size="27"
    font-weight="700"
    letter-spacing="-0.01em"
  >
    Bank of America
  </text>
  <g transform="translate(338 15)">
    <polygon points="0,20 34,0 50,0 16,20" fill="#E21C2A"/>
    <polygon points="22,20 56,0 72,0 38,20" fill="#E21C2A"/>
    <polygon points="44,20 78,0 94,0 60,20" fill="#E21C2A"/>
    <polygon points="0,34 34,14 50,14 16,34" fill="#0B2F73"/>
    <polygon points="22,34 56,14 72,14 38,34" fill="#0B2F73"/>
    <polygon points="44,34 78,14 94,14 60,34" fill="#0B2F73"/>
    <polygon points="0,48 34,28 50,28 16,48" fill="#E21C2A"/>
    <polygon points="22,48 56,28 72,28 38,48" fill="#E21C2A"/>
    <polygon points="44,48 78,28 94,28 60,48" fill="#E21C2A"/>
  </g>
</svg>
