<svg xmlns="http://www.w3.org/2000/svg" viewBox="0 0 280 60" role="img" aria-label="Barclays">
  <!-- Spread eagle mark (simplified Barclays-style) -->
  <g fill="#00AEEF">
    <!-- Head -->
    <ellipse cx="30" cy="12" rx="6" ry="7"/>
    <!-- Body -->
    <ellipse cx="30" cy="30" rx="7" ry="10"/>
    <!-- Left wing upper -->
    <path d="M23,24 C16,18 6,14 0,16 C4,22 12,24 20,26 Z"/>
    <!-- Right wing upper -->
    <path d="M37,24 C44,18 54,14 60,16 C56,22 48,24 40,26 Z"/>
    <!-- Left wing lower feathers -->
    <path d="M20,26 C12,26 4,28 0,32 C6,32 14,30 20,29 Z"/>
    <!-- Right wing lower feathers -->
    <path d="M40,26 C48,26 56,28 60,32 C54,32 46,30 40,29 Z"/>
    <!-- Tail -->
    <path d="M24,40 C22,46 21,52 24,56 L30,50 L36,56 C39,52 38,46 36,40 Z"/>
  </g>
  <!-- Wordmark -->
  <text x="72" y="36" fill="#00295F" font-family="'Helvetica Neue',Arial,sans-serif" font-size="22" font-weight="700" letter-spacing="0.01em">Barclays</text>
</svg>
